<mxfile host="app.diagrams.net" agent="Mozilla/5.0 (Windows NT 10.0; Win64; x64) AppleWebKit/537.36 (KHTML, like Gecko) Chrome/131.0.0.0 Safari/537.36" version="26.0.1">
  <diagram name="Page-1" id="9RxGlNECNuAR5MONG1Gv">
    <mxGraphModel dx="1707" dy="1036" grid="0" gridSize="10" guides="1" tooltips="1" connect="1" arrows="1" fold="1" page="0" pageScale="1" pageWidth="850" pageHeight="1100" math="0" shadow="0">
      <root>
        <mxCell id="0" />
        <mxCell id="1" parent="0" />
        <mxCell id="ghO0fQolql03ZRRlyo17-7" value="&lt;h1 style=&quot;box-sizing: border-box; margin-top: var(--base-size-24); margin-right: 0px; margin-bottom: var(--base-size-16); margin-left: 0px; font-weight: var(--base-text-weight-semibold, 600); line-height: 1.25; padding-bottom: 0.3em; border-bottom: 1px solid var(--borderColor-muted, var(--color-border-muted)); font-family: -apple-system, BlinkMacSystemFont, &amp;quot;Segoe UI&amp;quot;, &amp;quot;Noto Sans&amp;quot;, Helvetica, Arial, sans-serif, &amp;quot;Apple Color Emoji&amp;quot;, &amp;quot;Segoe UI Emoji&amp;quot;; text-align: start;&quot; dir=&quot;auto&quot; class=&quot;heading-element&quot; tabindex=&quot;-1&quot;&gt;&lt;font style=&quot;font-size: 12px; color: rgb(234, 107, 102);&quot;&gt;Logging Files&lt;/font&gt;&lt;/h1&gt;" style="rounded=0;whiteSpace=wrap;html=1;dashed=1;strokeColor=light-dark(#ff0505, #ededed);labelPosition=center;verticalLabelPosition=top;align=center;verticalAlign=bottom;" vertex="1" parent="1">
          <mxGeometry x="201" y="-118" width="259" height="121" as="geometry" />
        </mxCell>
        <mxCell id="lX7MXvr3PJr0z3jf6e7d-2" value="&lt;font style=&quot;color: rgb(255, 153, 153);&quot;&gt;&lt;b&gt;shelLM&lt;/b&gt;&lt;/font&gt;" style="rounded=0;whiteSpace=wrap;html=1;dashed=1;dashPattern=8 8;strokeColor=#FF9999;labelPosition=center;verticalLabelPosition=top;align=center;verticalAlign=bottom;" parent="1" vertex="1">
          <mxGeometry x="439" y="47" width="470" height="407" as="geometry" />
        </mxCell>
        <mxCell id="i5h9iLDijJMk_nbDJy89-2" value="&lt;b&gt;User&lt;/b&gt;" style="sketch=0;pointerEvents=1;shadow=0;dashed=0;html=1;strokeColor=none;fillColor=#505050;labelPosition=center;verticalLabelPosition=bottom;verticalAlign=top;outlineConnect=0;align=center;shape=mxgraph.office.services.business_connectivity_services;" parent="1" vertex="1">
          <mxGeometry x="122.5" y="110" width="34" height="51" as="geometry" />
        </mxCell>
        <mxCell id="i5h9iLDijJMk_nbDJy89-4" value="LLM" style="sketch=0;pointerEvents=1;shadow=0;dashed=0;html=1;strokeColor=none;fillColor=#505050;labelPosition=center;verticalLabelPosition=bottom;verticalAlign=top;outlineConnect=0;align=center;shape=mxgraph.office.services.online_hosted_services;" parent="1" vertex="1">
          <mxGeometry x="675" y="350" width="56" height="52" as="geometry" />
        </mxCell>
        <mxCell id="i5h9iLDijJMk_nbDJy89-5" value="SSH Honeypot" style="sketch=0;pointerEvents=1;shadow=0;dashed=0;html=1;strokeColor=none;fillColor=#505050;labelPosition=center;verticalLabelPosition=bottom;verticalAlign=top;outlineConnect=0;align=center;shape=mxgraph.office.servers.monitoring_sql_reporting_services;fontStyle=1" parent="1" vertex="1">
          <mxGeometry x="350" y="102" width="50" height="59" as="geometry" />
        </mxCell>
        <mxCell id="i5h9iLDijJMk_nbDJy89-6" value="Prompt" style="sketch=0;pointerEvents=1;shadow=0;dashed=0;html=1;strokeColor=none;fillColor=#505050;labelPosition=center;verticalLabelPosition=bottom;verticalAlign=top;outlineConnect=0;align=center;shape=mxgraph.office.concepts.sign_up;" parent="1" vertex="1">
          <mxGeometry x="680" y="70" width="51" height="47" as="geometry" />
        </mxCell>
        <mxCell id="i5h9iLDijJMk_nbDJy89-10" value="" style="endArrow=classic;startArrow=classic;html=1;rounded=0;exitX=1.103;exitY=0.98;exitDx=0;exitDy=0;exitPerimeter=0;entryX=0;entryY=0.983;entryDx=0;entryDy=0;entryPerimeter=0;" parent="1" source="i5h9iLDijJMk_nbDJy89-2" target="i5h9iLDijJMk_nbDJy89-5" edge="1">
          <mxGeometry width="50" height="50" relative="1" as="geometry">
            <mxPoint x="360" y="240" as="sourcePoint" />
            <mxPoint x="410" y="190" as="targetPoint" />
          </mxGeometry>
        </mxCell>
        <mxCell id="i5h9iLDijJMk_nbDJy89-11" value="1. Kết nối ssh" style="edgeLabel;html=1;align=center;verticalAlign=middle;resizable=0;points=[];" parent="i5h9iLDijJMk_nbDJy89-10" connectable="0" vertex="1">
          <mxGeometry x="0.1133" relative="1" as="geometry">
            <mxPoint as="offset" />
          </mxGeometry>
        </mxCell>
        <mxCell id="i5h9iLDijJMk_nbDJy89-12" value="" style="endArrow=classic;html=1;rounded=0;" parent="1" source="i5h9iLDijJMk_nbDJy89-2" target="i5h9iLDijJMk_nbDJy89-5" edge="1">
          <mxGeometry width="50" height="50" relative="1" as="geometry">
            <mxPoint x="190" y="230" as="sourcePoint" />
            <mxPoint x="410" y="190" as="targetPoint" />
          </mxGeometry>
        </mxCell>
        <mxCell id="i5h9iLDijJMk_nbDJy89-14" value="2. Nhập và gửi đi input" style="edgeLabel;html=1;align=center;verticalAlign=middle;resizable=0;points=[];" parent="i5h9iLDijJMk_nbDJy89-12" connectable="0" vertex="1">
          <mxGeometry x="-0.0881" y="-2" relative="1" as="geometry">
            <mxPoint as="offset" />
          </mxGeometry>
        </mxCell>
        <mxCell id="i5h9iLDijJMk_nbDJy89-15" value="" style="endArrow=classic;html=1;rounded=0;entryX=0;entryY=0.596;entryDx=0;entryDy=0;entryPerimeter=0;" parent="1" source="i5h9iLDijJMk_nbDJy89-5" target="i5h9iLDijJMk_nbDJy89-6" edge="1">
          <mxGeometry width="50" height="50" relative="1" as="geometry">
            <mxPoint x="360" y="240" as="sourcePoint" />
            <mxPoint x="410" y="190" as="targetPoint" />
          </mxGeometry>
        </mxCell>
        <object label="3. Cập nhập input vào prompt " id="i5h9iLDijJMk_nbDJy89-16">
          <mxCell style="edgeLabel;html=1;align=center;verticalAlign=middle;resizable=0;points=[];imageAlign=center;imageVerticalAlign=top;container=0;dropTarget=0;metaEdit=1;treeMoving=1;comic=0;enumerate=0;" parent="i5h9iLDijJMk_nbDJy89-15" connectable="0" vertex="1">
            <mxGeometry x="-0.4735" y="2" relative="1" as="geometry">
              <mxPoint x="64" y="-8" as="offset" />
            </mxGeometry>
          </mxCell>
        </object>
        <mxCell id="i5h9iLDijJMk_nbDJy89-18" value="" style="endArrow=classic;html=1;rounded=0;exitX=-0.039;exitY=1.064;exitDx=0;exitDy=0;exitPerimeter=0;entryX=0.03;entryY=-0.04;entryDx=0;entryDy=0;entryPerimeter=0;" parent="1" source="i5h9iLDijJMk_nbDJy89-6" target="i5h9iLDijJMk_nbDJy89-4" edge="1">
          <mxGeometry width="50" height="50" relative="1" as="geometry">
            <mxPoint x="740" y="240" as="sourcePoint" />
            <mxPoint x="678" y="340" as="targetPoint" />
          </mxGeometry>
        </mxCell>
        <mxCell id="i5h9iLDijJMk_nbDJy89-21" value="4. Gửi AI để tạo&amp;nbsp;&lt;div&gt;phản hồi tương ứng&lt;/div&gt;" style="edgeLabel;html=1;align=left;verticalAlign=middle;resizable=0;points=[];" parent="i5h9iLDijJMk_nbDJy89-18" connectable="0" vertex="1">
          <mxGeometry x="-0.03" y="3" relative="1" as="geometry">
            <mxPoint x="-110" y="-20" as="offset" />
          </mxGeometry>
        </mxCell>
        <mxCell id="i5h9iLDijJMk_nbDJy89-20" value="" style="endArrow=classic;html=1;rounded=0;entryX=0.98;entryY=1.064;entryDx=0;entryDy=0;entryPerimeter=0;exitX=1.071;exitY=0.385;exitDx=0;exitDy=0;exitPerimeter=0;strokeColor=none;" parent="1" source="i5h9iLDijJMk_nbDJy89-4" target="i5h9iLDijJMk_nbDJy89-6" edge="1">
          <mxGeometry width="50" height="50" relative="1" as="geometry">
            <mxPoint x="731" y="350" as="sourcePoint" />
            <mxPoint x="771" y="198" as="targetPoint" />
          </mxGeometry>
        </mxCell>
        <mxCell id="i5h9iLDijJMk_nbDJy89-22" value="" style="endArrow=classic;html=1;rounded=0;entryX=0.784;entryY=1.064;entryDx=0;entryDy=0;entryPerimeter=0;exitX=0.804;exitY=0;exitDx=0;exitDy=0;exitPerimeter=0;" parent="1" source="i5h9iLDijJMk_nbDJy89-4" target="i5h9iLDijJMk_nbDJy89-6" edge="1">
          <mxGeometry width="50" height="50" relative="1" as="geometry">
            <mxPoint x="570" y="310" as="sourcePoint" />
            <mxPoint x="620" y="260" as="targetPoint" />
          </mxGeometry>
        </mxCell>
        <mxCell id="i5h9iLDijJMk_nbDJy89-23" value="&lt;div style=&quot;&quot;&gt;5. Cập nhập prompt&amp;nbsp;&lt;/div&gt;&lt;div style=&quot;&quot;&gt;với phản hồi mà LLM tạo ra&lt;/div&gt;&lt;div style=&quot;&quot;&gt;&amp;nbsp;ứng với input mà user gửi tới&amp;nbsp;&lt;/div&gt;" style="edgeLabel;html=1;align=left;verticalAlign=middle;resizable=0;points=[];" parent="i5h9iLDijJMk_nbDJy89-22" connectable="0" vertex="1">
          <mxGeometry x="0.1059" y="-3" relative="1" as="geometry">
            <mxPoint x="11" y="-3" as="offset" />
          </mxGeometry>
        </mxCell>
        <mxCell id="i5h9iLDijJMk_nbDJy89-24" value="" style="endArrow=classic;html=1;rounded=0;entryX=1;entryY=0.983;entryDx=0;entryDy=0;entryPerimeter=0;exitX=-0.089;exitY=0.385;exitDx=0;exitDy=0;exitPerimeter=0;" parent="1" source="i5h9iLDijJMk_nbDJy89-4" target="i5h9iLDijJMk_nbDJy89-5" edge="1">
          <mxGeometry width="50" height="50" relative="1" as="geometry">
            <mxPoint x="430" y="240" as="sourcePoint" />
            <mxPoint x="480" y="190" as="targetPoint" />
          </mxGeometry>
        </mxCell>
        <mxCell id="i5h9iLDijJMk_nbDJy89-25" value="6. Gửi kết quả tạo ra dựa trên prompt&amp;nbsp;&lt;div&gt;và input của người dùng&lt;/div&gt;" style="edgeLabel;html=1;align=left;verticalAlign=middle;resizable=0;points=[];" parent="i5h9iLDijJMk_nbDJy89-24" connectable="0" vertex="1">
          <mxGeometry x="-0.1061" y="1" relative="1" as="geometry">
            <mxPoint x="-101" y="-10" as="offset" />
          </mxGeometry>
        </mxCell>
        <mxCell id="i5h9iLDijJMk_nbDJy89-26" value="" style="endArrow=classic;html=1;rounded=0;entryX=-0.074;entryY=1.176;entryDx=0;entryDy=0;entryPerimeter=0;exitX=0.6;exitY=1.153;exitDx=0;exitDy=0;exitPerimeter=0;edgeStyle=orthogonalEdgeStyle;" parent="1" source="i5h9iLDijJMk_nbDJy89-5" target="i5h9iLDijJMk_nbDJy89-2" edge="1">
          <mxGeometry width="50" height="50" relative="1" as="geometry">
            <mxPoint x="430" y="240" as="sourcePoint" />
            <mxPoint x="480" y="190" as="targetPoint" />
            <Array as="points">
              <mxPoint x="380" y="230" />
              <mxPoint x="120" y="230" />
            </Array>
          </mxGeometry>
        </mxCell>
        <mxCell id="i5h9iLDijJMk_nbDJy89-27" value="7. Phản hồi&amp;nbsp;" style="edgeLabel;html=1;align=center;verticalAlign=middle;resizable=0;points=[];" parent="i5h9iLDijJMk_nbDJy89-26" connectable="0" vertex="1">
          <mxGeometry x="-0.2077" relative="1" as="geometry">
            <mxPoint x="-20" as="offset" />
          </mxGeometry>
        </mxCell>
        <mxCell id="ghO0fQolql03ZRRlyo17-1" value="" style="endArrow=none;dashed=1;html=1;dashPattern=1 3;strokeWidth=2;rounded=0;exitX=0.56;exitY=-0.051;exitDx=0;exitDy=0;exitPerimeter=0;" edge="1" parent="1" source="i5h9iLDijJMk_nbDJy89-5">
          <mxGeometry width="50" height="50" relative="1" as="geometry">
            <mxPoint x="373" y="76" as="sourcePoint" />
            <mxPoint x="377.9999999999998" y="233" as="targetPoint" />
          </mxGeometry>
        </mxCell>
        <mxCell id="ghO0fQolql03ZRRlyo17-4" value="command.log" style="sketch=0;pointerEvents=1;shadow=0;dashed=0;html=1;strokeColor=none;fillColor=#505050;labelPosition=center;verticalLabelPosition=bottom;verticalAlign=top;outlineConnect=0;align=center;shape=mxgraph.office.services.central_management_service;" vertex="1" parent="1">
          <mxGeometry x="264" y="-100" width="51" height="54" as="geometry" />
        </mxCell>
        <mxCell id="ghO0fQolql03ZRRlyo17-5" value="credentials.log" style="sketch=0;pointerEvents=1;shadow=0;dashed=0;html=1;strokeColor=none;fillColor=#505050;labelPosition=center;verticalLabelPosition=bottom;verticalAlign=top;outlineConnect=0;align=center;shape=mxgraph.office.services.central_management_service;" vertex="1" parent="1">
          <mxGeometry x="360" y="-100" width="51" height="54" as="geometry" />
        </mxCell>
        <mxCell id="ghO0fQolql03ZRRlyo17-8" value="" style="endArrow=classic;html=1;rounded=0;entryX=0.5;entryY=1;entryDx=0;entryDy=0;exitX=0.46;exitY=-0.068;exitDx=0;exitDy=0;exitPerimeter=0;" edge="1" parent="1" source="i5h9iLDijJMk_nbDJy89-5" target="ghO0fQolql03ZRRlyo17-7">
          <mxGeometry width="50" height="50" relative="1" as="geometry">
            <mxPoint x="376" y="71" as="sourcePoint" />
            <mxPoint x="426" y="21" as="targetPoint" />
          </mxGeometry>
        </mxCell>
        <mxCell id="ghO0fQolql03ZRRlyo17-9" value="Lưu thông tin" style="edgeLabel;html=1;align=center;verticalAlign=middle;resizable=0;points=[];" vertex="1" connectable="0" parent="ghO0fQolql03ZRRlyo17-8">
          <mxGeometry x="0.0104" y="-3" relative="1" as="geometry">
            <mxPoint as="offset" />
          </mxGeometry>
        </mxCell>
      </root>
    </mxGraphModel>
  </diagram>
</mxfile>
